<?xml version="1.0" encoding="UTF-8" standalone="no"?>
<svg
   xmlns:dc="http://purl.org/dc/elements/1.1/"
   xmlns:cc="http://creativecommons.org/ns#"
   xmlns:rdf="http://www.w3.org/1999/02/22-rdf-syntax-ns#"
   xmlns:svg="http://www.w3.org/2000/svg"
   xmlns="http://www.w3.org/2000/svg"
   viewBox="100 150 1400 400"
   height="50"
   width="150"
   xml:space="default"
   version="1.1"
   id="svg2"><metadata
     id="metadata8"><rdf:RDF><cc:Work
         rdf:about=""><dc:format>image/svg+xml</dc:format><dc:type
           rdf:resource="http://purl.org/dc/dcmitype/StillImage" /></cc:Work></rdf:RDF></metadata><defs
     id="defs6"><clipPath
       id="clipPath16"
       clipPathUnits="userSpaceOnUse"><path
         id="path18"
         d="M 0,552 1300,552 1300,0 0,0 0,552 Z" /></clipPath></defs><g
     transform="matrix(1.25,0,0,-1.25,0,690)"
     id="g10"><g
       id="g12"><g
         clip-path="url(#clipPath16)"
         id="g14"><g
           transform="translate(1109.7754,224.2222)"
           id="g20"><path
             id="path22"
             style="fill:#E31937;fill-opacity:1;fill-rule:nonzero;stroke:none"
             d="m 0,0 c 0,-37.45 -25.601,-42.945 -60.273,-42.945 -27.182,0 -52.277,5.495 -52.277,38.003 0,28.088 17.605,39.092 53.873,39.092 L 0,34.15 0,0 Z m -66.136,194.418 c -17.59,0 -28.993,-0.814 -38.034,-1.949 l 0,-0.016 c -21.779,-2.992 -39.056,-43.698 -29.131,-51.125 2.785,-2.084 7.582,-1.719 14.366,-0.322 10.667,2.21 29.869,4.957 55.992,4.957 37.88,0 62.943,-7.705 62.943,-41.855 l 0,-26.998 -58.677,0 c -66.658,0 -108.789,-21.457 -108.789,-83.157 0,-58.401 38.923,-84.816 108.268,-84.816 78.921,0 113.593,27.535 113.593,88.116 l 0,106.855 c 0,68.853 -48.532,90.31 -120.531,90.31" /></g><g
           transform="translate(359.2847,242.7832)"
           id="g24"><path
             id="path26"
             style="fill:#E31937;fill-opacity:1;fill-rule:nonzero;stroke:none"
             d="m 0,0 c 0,-68.761 37.082,-108.514 118.843,-108.698 l 0.552,0 C 201.171,-108.514 238.253,-68.761 238.253,0 l 0,128.128 c 0,21.565 -17.589,39.2 -39.123,39.2 l -8.902,0 c -4.65,0 -8.457,-3.822 -8.457,-8.473 L 181.833,0 c 0,-35.24 -11.466,-54.84 -62.714,-54.917 C 67.871,-54.84 56.405,-35.24 56.405,0 l 0.062,128.328 c -0.108,17.681 -12.079,32.554 -28.226,37.403 -7.137,2.134 -19.8,1.597 -19.8,1.597 C 3.806,167.328 0,163.506 0,158.855 L 0,0 Z" /></g><g
           transform="translate(891.3262,309.5303)"
           id="g28"><path
             id="path30"
             style="fill:#E31937;fill-opacity:1;fill-rule:nonzero;stroke:none"
             d="m 0,0 c 0,68.761 -37.082,108.513 -118.843,108.697 l -0.553,0 C -201.172,108.513 -238.253,68.761 -238.253,0 l 0,-136.187 c 0,-21.564 17.605,-39.199 39.123,-39.199 l 8.901,0 c 4.652,0 8.443,3.822 8.443,8.457 L -181.832,0 c 0,35.24 11.465,54.84 62.713,54.917 C -67.871,54.84 -56.405,35.24 -56.405,0 l -0.046,-136.401 c 0.092,-17.682 12.048,-32.539 28.21,-37.404 7.137,-2.134 19.8,-1.581 19.8,-1.581 4.634,0 8.441,3.822 8.441,8.457 L 0,0 Z" /></g><g
           transform="translate(146.835,399.1172)"
           id="g32"><path
             id="path34"
             style="fill:#E31937;fill-opacity:1;fill-rule:nonzero;stroke:none"
             d="m 0,0 64.218,-123.493 c 0.813,-1.581 0.829,-3.469 0.031,-5.065 l -64.341,-126.149 0.414,0 25.648,0 c 20.735,0 34.518,8.365 46.121,27.965 l 58.002,100.67 L 71.201,-25.34 C 61.317,-8.027 46.966,-0.016 25.985,-0.016 L 0,0 Z m 25.97,-265.758 -25.648,0 c -3.975,0 -7.566,2.011 -9.654,5.387 -2.072,3.392 -2.225,7.521 -0.43,11.052 L 53.075,-126.072 -9.624,-5.464 c -1.841,3.53 -1.703,7.674 0.369,11.066 2.072,3.422 5.679,5.448 9.67,5.448 l 25.57,0 c 25.002,0 42.93,-10.099 54.794,-30.849 l 60.488,-103.449 c 0.998,-1.719 0.998,-3.837 0.015,-5.571 L 81.623,-232.313 C 68.132,-255.152 50.45,-265.758 25.97,-265.758" /></g></g></g></g></svg>
